
<?xml version="1.0"?>
<svg xmlns="http://www.w3.org/2000/svg" xmlns:xlink="http://www.w3.org/1999/xlink" xmlns:svgjs="http://svgjs.com/svgjs" version="1.1" width="512" height="512" x="0" y="0" viewBox="0 0 512 512" style="enable-background:new 0 0 512 512" xml:space="preserve" class=""><g>
<path xmlns="http://www.w3.org/2000/svg" style="" d="M440.437,301.781L266.656,475.584V10.667C266.656,4.776,261.88,0,255.989,0  c-5.891,0-10.667,4.776-10.667,10.667v464.917L71.541,301.781c-4.237-4.093-10.99-3.975-15.083,0.262  c-3.992,4.134-3.992,10.687,0,14.82l192,192c4.16,4.171,10.914,4.179,15.085,0.019c0.006-0.006,0.013-0.013,0.019-0.019l192-192  c4.093-4.237,3.975-10.99-0.262-15.083c-4.134-3.993-10.687-3.993-14.821,0L440.437,301.781z" fill="#ffffff" data-original="#ffc107" class=""/>
<path xmlns="http://www.w3.org/2000/svg" d="M255.989,512c-2.831,0.005-5.548-1.115-7.552-3.115l-192-192c-4.093-4.237-3.975-10.99,0.262-15.083  c4.134-3.992,10.687-3.992,14.82,0l184.469,184.448l184.448-184.448c4.237-4.093,10.99-3.975,15.083,0.262  c3.993,4.134,3.993,10.687,0,14.821l-192,192C261.521,510.879,258.813,511.999,255.989,512z" fill="#ffffff" data-original="#000000" style="" class=""/>
<path xmlns="http://www.w3.org/2000/svg" d="M255.989,512c-5.891,0-10.667-4.776-10.667-10.667V10.667C245.323,4.776,250.098,0,255.989,0  c5.891,0,10.667,4.776,10.667,10.667v490.667C266.656,507.224,261.88,512,255.989,512z" fill="#ffffff" data-original="#000000" style="" class=""/>
<g xmlns="http://www.w3.org/2000/svg">
</g>
<g xmlns="http://www.w3.org/2000/svg">
</g>
<g xmlns="http://www.w3.org/2000/svg">
</g>
<g xmlns="http://www.w3.org/2000/svg">
</g>
<g xmlns="http://www.w3.org/2000/svg">
</g>
<g xmlns="http://www.w3.org/2000/svg">
</g>
<g xmlns="http://www.w3.org/2000/svg">
</g>
<g xmlns="http://www.w3.org/2000/svg">
</g>
<g xmlns="http://www.w3.org/2000/svg">
</g>
<g xmlns="http://www.w3.org/2000/svg">
</g>
<g xmlns="http://www.w3.org/2000/svg">
</g>
<g xmlns="http://www.w3.org/2000/svg">
</g>
<g xmlns="http://www.w3.org/2000/svg">
</g>
<g xmlns="http://www.w3.org/2000/svg">
</g>
<g xmlns="http://www.w3.org/2000/svg">
</g>
</g></svg>

<svg id="Layer" enable-background="new 0 0 64 64"  height="512" viewBox="0 0 64 64" width="512" xmlns="http://www.w3.org/2000/svg"><path d="m32 8c-1.104 0-2 .896-2 2v39.899l-14.552-15.278c-.761-.799-2.026-.832-2.828-.069-.8.762-.831 2.027-.069 2.827l16.62 17.449c.756.756 1.76 1.172 2.829 1.172 1.068 0 2.073-.416 2.862-1.207l16.586-17.414c.762-.8.73-2.065-.069-2.827-.799-.763-2.065-.731-2.827.069l-14.552 15.342v-39.963c0-1.104-.896-2-2-2z"/></svg>


